<svg width="3840" height="2160" viewBox="0 0 3840 2160" fill="none" xmlns="http://www.w3.org/2000/svg">
<g clip-path="url(#clip0_326_92)">
<rect width="3840" height="2160" fill="#003845"/>
<path fill-rule="evenodd" clip-rule="evenodd" d="M0 1470L160.366 1487.8C323.759 1505.6 644.491 1541.2 968.25 1601.45C1292.01 1663.07 1612.74 1750.7 1936.5 1768.5C2260.26 1786.3 2580.99 1732.9 2904.75 1716.47C3228.51 1698.67 3549.24 1716.47 3712.63 1724.68L3873 1732.9V2255.63H3740.5C3577.11 2255.63 3262.26 2255.63 2938.5 2255.63C2614.74 2255.63 2260.26 2255.63 1936.5 2255.63C1612.74 2255.63 1292.01 2255.63 968.25 2255.63C644.491 2255.63 356.892 2255.63 193.5 2255.63H0V1470Z" fill="#49737F" fill-opacity="0.66"/>
<path fill-rule="evenodd" clip-rule="evenodd" d="M0 1659.51L129.1 1697.41C258.2 1735.31 516.4 1811.11 774.6 1792.16C1032.8 1773.21 1291 1659.51 1549.2 1583.7C1807.4 1507.9 2065.6 1470 2323.8 1470C2582 1470 2840.2 1507.9 3098.4 1574.23C3356.6 1640.56 3614.8 1735.31 3743.9 1782.69L3873 1830.06V2258.5H3634C3504.9 2258.5 3343.2 2258.5 3085 2258.5C2826.8 2258.5 2582 2258.5 2323.8 2258.5C2065.6 2258.5 1807.4 2258.5 1549.2 2258.5C1291 2258.5 1060.7 2258.5 802.5 2258.5C544.3 2258.5 258.2 2258.5 129.1 2258.5H0V1659.51Z" fill="#E5E5E5" fill-opacity="0.13"/>
</g>
<defs>
<clipPath id="clip0_326_92">
<rect width="3840" height="2160" fill="white"/>
</clipPath>
</defs>
</svg>
