<svg width="3840" height="2160" viewBox="0 0 3840 2160" fill="none" xmlns="http://www.w3.org/2000/svg">
<g clip-path="url(#clip0_326_92)">
<rect width="3840" height="2160" fill="#003845"/>
<path fill-rule="evenodd" clip-rule="evenodd" d="M-17 1417L143.366 1434.8C306.759 1452.6 627.491 1488.2 951.25 1548.45C1275.01 1610.07 1595.74 1697.7 1919.5 1715.5C2243.26 1733.3 2563.99 1679.9 2887.75 1663.47C3211.51 1645.67 3532.24 1663.47 3695.63 1671.68L3856 1679.9V2202.63H3723.5C3560.11 2202.63 3245.26 2202.63 2921.5 2202.63C2597.74 2202.63 2243.26 2202.63 1919.5 2202.63C1595.74 2202.63 1275.01 2202.63 951.25 2202.63C627.491 2202.63 339.892 2202.63 176.5 2202.63H-17V1417Z" fill="#49737F" fill-opacity="0.66"/>
<path fill-rule="evenodd" clip-rule="evenodd" d="M-17 1606.51L112.1 1644.41C241.2 1682.31 499.4 1758.11 757.6 1739.16C1015.8 1720.21 1274 1606.51 1532.2 1530.7C1790.4 1454.9 2048.6 1417 2306.8 1417C2565 1417 2823.2 1454.9 3081.4 1521.23C3339.6 1587.56 3597.8 1682.31 3726.9 1729.69L3856 1777.06V2205.5H3617C3487.9 2205.5 3326.2 2205.5 3068 2205.5C2809.8 2205.5 2565 2205.5 2306.8 2205.5C2048.6 2205.5 1790.4 2205.5 1532.2 2205.5C1274 2205.5 1043.7 2205.5 785.5 2205.5C527.3 2205.5 241.2 2205.5 112.1 2205.5H-17V1606.51Z" fill="#E5E5E5" fill-opacity="0.13"/>
</g>
<defs>
<clipPath id="clip0_326_92">
<rect width="3840" height="2160" fill="white"/>
</clipPath>
</defs>
</svg>
