<svg width="1920" height="1080" viewBox="0 0 1920 1080" fill="none" xmlns="http://www.w3.org/2000/svg">
<rect width="1920" height="1080" fill="#003845"/>
<path fill-rule="evenodd" clip-rule="evenodd" d="M0 788L79.5 798.971C160.5 809.942 319.5 831.884 480 869.017C640.5 906.994 799.5 961.006 960 971.977C1120.5 982.948 1279.5 950.035 1440 939.908C1600.5 928.936 1759.5 939.908 1840.5 944.971L1920 950.035V1080H1840.5C1759.5 1080 1600.5 1080 1440 1080C1279.5 1080 1120.5 1080 960 1080C799.5 1080 640.5 1080 480 1080C319.5 1080 160.5 1080 79.5 1080H0V788Z" fill="#49737F" fill-opacity="0.66"/>
<path fill-rule="evenodd" clip-rule="evenodd" d="M0 904.8L64 928.16C128 951.52 256 998.24 384 986.56C512 974.88 640 904.8 768 858.08C896 811.36 1024 788 1152 788C1280 788 1408 811.36 1536 852.24C1664 893.12 1792 951.52 1856 980.72L1920 1009.92V1080H1856C1792 1080 1664 1080 1536 1080C1408 1080 1280 1080 1152 1080C1024 1080 896 1080 768 1080C640 1080 512 1080 384 1080C256 1080 128 1080 64 1080H0V904.8Z" fill="#E5E5E5" fill-opacity="0.13"/>
</svg>
