<svg width="36" height="37" viewBox="0 0 36 37" fill="none" xmlns="http://www.w3.org/2000/svg">
<path d="M23.625 32H1.125C0.492188 32 0 32.5625 0 33.125V35.375C0 36.0078 0.492188 36.5 1.125 36.5H23.625C24.1875 36.5 24.75 36.0078 24.75 35.375V33.125C24.75 32.5625 24.1875 32 23.625 32ZM34.6641 8.09375L28.9688 2.39844C28.5469 1.97656 27.7734 1.97656 27.3516 2.39844L26.5781 3.17188C26.1562 3.59375 26.1562 4.29688 26.5781 4.78906L29.25 7.39062V11.75C29.25 13.7891 30.6562 15.4062 32.625 15.6875V26.9375C32.625 27.9219 31.8516 28.625 30.9375 28.625C29.9531 28.625 29.25 27.9219 29.25 26.9375V24.6875C29.25 21.3125 26.4375 18.5 23.0625 18.5H22.5V5C22.5 2.53906 20.4609 0.5 18 0.5H6.75C4.21875 0.5 2.25 2.53906 2.25 5V29.75H22.5V21.875H23.0625C24.6094 21.875 25.875 23.1406 25.875 24.6875V26.6562C25.875 29.3281 27.7734 31.7188 30.375 32C33.3984 32.2812 36 29.9609 36 26.9375V11.2578C36 10.0625 35.5078 8.9375 34.6641 8.09375ZM18 14H6.75V5H18V14Z" fill="#003845"/>
</svg>
